<?xml version="1.0" encoding="UTF-8" standalone="no"?><svg xmlns="http://www.w3.org/2000/svg" xmlns:xlink="http://www.w3.org/1999/xlink" contentScriptType="application/ecmascript" contentStyleType="text/css" height="441px" preserveAspectRatio="none" style="width:754px;height:441px;background:#FFFFFF;" version="1.1" viewBox="0 0 754 441" width="754px" zoomAndPan="magnify"><defs><filter height="300%" id="fh1eajp0wdj4q" width="300%" x="-1" y="-1"><feGaussianBlur result="blurOut" stdDeviation="2.0"/><feColorMatrix in="blurOut" result="blurOut2" type="matrix" values="0 0 0 0 0 0 0 0 0 0 0 0 0 0 0 0 0 0 .4 0"/><feOffset dx="4.0" dy="4.0" in="blurOut2" result="blurOut3"/><feBlend in="SourceGraphic" in2="blurOut3" mode="normal"/></filter></defs><g><!--MD5=[c8375d0abf05781a4d00ac7db9cff037]
cluster host--><polygon fill="#FFFFFF" filter="url(#fh1eajp0wdj4q)" points="16,16,26,6,700,6,700,424,690,434,16,434,16,16" style="stroke:#000000;stroke-width:1.5;"/><line style="stroke:#000000;stroke-width:1.5;" x1="690" x2="700" y1="16" y2="6"/><line style="stroke:#000000;stroke-width:1.5;" x1="16" x2="690" y1="16" y2="16"/><line style="stroke:#000000;stroke-width:1.5;" x1="690" x2="690" y1="16" y2="434"/><text fill="#000000" font-family="sans-serif" font-size="14" font-weight="bold" lengthAdjust="spacing" textLength="37" x="335.5" y="31.9951">host</text><!--MD5=[5f87dc508e05c99e0650970eb25205a2]
cluster host_net--><rect fill="#FFFFFF" filter="url(#fh1eajp0wdj4q)" height="129" style="stroke:#000000;stroke-width:1.0;stroke-dasharray:1.0,3.0;" width="266" x="402" y="264.5"/><text fill="#000000" font-family="sans-serif" font-size="14" font-weight="bold" lengthAdjust="spacing" textLength="37" x="516.5" y="279.4951">host</text><text fill="#000000" font-family="sans-serif" font-size="14" font-weight="bold" lengthAdjust="spacing" textLength="66" x="502" y="295.792">network</text><!--MD5=[ecca42ca20a19f9a1ce3b1e4b10126b4]
cluster virt_net_backend--><rect fill="#FFFFFF" filter="url(#fh1eajp0wdj4q)" height="129" style="stroke:#000000;stroke-width:1.0;stroke-dasharray:1.0,3.0;" width="169" x="402" y="62"/><text fill="#000000" font-family="sans-serif" font-size="14" font-weight="bold" lengthAdjust="spacing" textLength="54" x="459.5" y="76.9951">virtual</text><text fill="#000000" font-family="sans-serif" font-size="14" font-weight="bold" lengthAdjust="spacing" textLength="66" x="453.5" y="93.292">network</text><!--MD5=[aa0613179651cd9fe0c7f3cb6753c397]
cluster virt_net_db--><rect fill="#FFFFFF" filter="url(#fh1eajp0wdj4q)" height="128" style="stroke:#000000;stroke-width:1.0;stroke-dasharray:1.0,3.0;" width="107" x="255" y="265"/><text fill="#000000" font-family="sans-serif" font-size="14" font-weight="bold" lengthAdjust="spacing" textLength="54" x="281.5" y="279.9951">virtual</text><text fill="#000000" font-family="sans-serif" font-size="14" font-weight="bold" lengthAdjust="spacing" textLength="66" x="275.5" y="296.292">network</text><!--MD5=[5991c8c82125116e8d85959ad8572975]
cluster virt_net_stub--><rect fill="#FFFFFF" filter="url(#fh1eajp0wdj4q)" height="146" style="stroke:#000000;stroke-width:1.0;stroke-dasharray:1.0,3.0;" width="167" x="48" y="256"/><text fill="#000000" font-family="sans-serif" font-size="14" font-weight="bold" lengthAdjust="spacing" textLength="54" x="104.5" y="270.9951">virtual</text><text fill="#000000" font-family="sans-serif" font-size="14" font-weight="bold" lengthAdjust="spacing" textLength="66" x="98.5" y="287.292">network</text><!--MD5=[1c4445a7000564b839da5ed8916fbcae]
entity curl--><rect fill="#FEFECE" filter="url(#fh1eajp0wdj4q)" height="46.2969" style="stroke:#A80036;stroke-width:1.5;" width="66" x="445" y="323.5"/><rect fill="#FEFECE" height="10" style="stroke:#A80036;stroke-width:1.5;" width="15" x="491" y="328.5"/><rect fill="#FEFECE" height="2" style="stroke:#A80036;stroke-width:1.5;" width="4" x="489" y="330.5"/><rect fill="#FEFECE" height="2" style="stroke:#A80036;stroke-width:1.5;" width="4" x="489" y="334.5"/><text fill="#000000" font-family="sans-serif" font-size="14" lengthAdjust="spacing" textLength="26" x="460" y="356.4951">curl</text><!--MD5=[23555a4f9c8a267cdfd801ad53ceaf15]
entity browser--><rect fill="#FEFECE" filter="url(#fh1eajp0wdj4q)" height="46.2969" style="stroke:#A80036;stroke-width:1.5;" width="98" x="546" y="323.5"/><rect fill="#FEFECE" height="10" style="stroke:#A80036;stroke-width:1.5;" width="15" x="624" y="328.5"/><rect fill="#FEFECE" height="2" style="stroke:#A80036;stroke-width:1.5;" width="4" x="622" y="330.5"/><rect fill="#FEFECE" height="2" style="stroke:#A80036;stroke-width:1.5;" width="4" x="622" y="334.5"/><text fill="#000000" font-family="sans-serif" font-size="14" lengthAdjust="spacing" textLength="58" x="561" y="356.4951">browser</text><!--MD5=[4e8ecd94af36cce41665c9f079adf9fd]
entity backend--><rect fill="#FEFECE" filter="url(#fh1eajp0wdj4q)" height="46.2969" style="stroke:#A80036;stroke-width:1.5;" width="102" x="445" y="121"/><rect fill="#FEFECE" height="10" style="stroke:#A80036;stroke-width:1.5;" width="15" x="527" y="126"/><rect fill="#FEFECE" height="2" style="stroke:#A80036;stroke-width:1.5;" width="4" x="525" y="128"/><rect fill="#FEFECE" height="2" style="stroke:#A80036;stroke-width:1.5;" width="4" x="525" y="132"/><text fill="#000000" font-family="sans-serif" font-size="14" lengthAdjust="spacing" textLength="62" x="460" y="153.9951">backend</text><!--MD5=[7468467f3b6b392f1d176d828c753b77]
entity db--><path d="M298.5,334 C298.5,324 318,324 318,324 C318,324 337.5,324 337.5,334 L337.5,359.2969 C337.5,369.2969 318,369.2969 318,369.2969 C318,369.2969 298.5,369.2969 298.5,359.2969 L298.5,334 " fill="#FEFECE" filter="url(#fh1eajp0wdj4q)" style="stroke:#000000;stroke-width:1.5;"/><path d="M298.5,334 C298.5,344 318,344 318,344 C318,344 337.5,344 337.5,334 " fill="none" style="stroke:#000000;stroke-width:1.5;"/><text fill="#000000" font-family="sans-serif" font-size="14" lengthAdjust="spacing" textLength="19" x="308.5" y="360.9951">db</text><!--MD5=[e4679e91b5107b1d6f14b392c0de4394]
entity stub--><rect fill="#FEFECE" filter="url(#fh1eajp0wdj4q)" height="62.5938" style="stroke:#A80036;stroke-width:1.5;" width="100" x="91" y="315"/><rect fill="#FEFECE" height="10" style="stroke:#A80036;stroke-width:1.5;" width="15" x="171" y="320"/><rect fill="#FEFECE" height="2" style="stroke:#A80036;stroke-width:1.5;" width="4" x="169" y="322"/><rect fill="#FEFECE" height="2" style="stroke:#A80036;stroke-width:1.5;" width="4" x="169" y="326"/><text fill="#000000" font-family="sans-serif" font-size="14" lengthAdjust="spacing" textLength="60" x="106" y="347.9951">external</text><text fill="#000000" font-family="sans-serif" font-size="14" lengthAdjust="spacing" textLength="51" x="106" y="364.292">service</text><!--MD5=[fee662a292a0353a69bd162820bae93b]
entity User--><ellipse cx="732" cy="315.5" fill="#FEFECE" filter="url(#fh1eajp0wdj4q)" rx="8" ry="8" style="stroke:#A80036;stroke-width:1.5;"/><path d="M732,323.5 L732,350.5 M719,331.5 L745,331.5 M732,350.5 L719,365.5 M732,350.5 L745,365.5 " fill="none" filter="url(#fh1eajp0wdj4q)" style="stroke:#A80036;stroke-width:1.5;"/><text fill="#000000" font-family="sans-serif" font-size="14" lengthAdjust="spacing" textLength="31" x="716.5" y="383.9951">User</text><!--MD5=[1cb22030b3d8c9d8d136e6fca08315d4]
link virt_net_backend to host_net--><path d="M410,191.0809 C410,191.7312 410,192.3859 410,193.0447 C410,198.3155 410,203.8533 410,209.5691 C410,221.0007 410,233.1442 410,245.2869 C410,251.3582 410,257.4294 410,263.4113 C410,263.5983 410,263.7851 410,263.9719 " fill="none" id="virt_net_backend-host_net" style="stroke:#A80036;stroke-width:1.0;"/><rect fill="#FFFFFF" height="10" style="stroke:#A80036;stroke-width:1.5;" width="10" x="405" y="258.9719"/><rect fill="#FFFFFF" height="10" style="stroke:#A80036;stroke-width:1.5;" width="10" x="405" y="186.0809"/><text fill="#000000" font-family="sans-serif" font-size="13" lengthAdjust="spacing" textLength="86" x="411" y="228.0669">port mapping</text><!--MD5=[a9b1a976f0ad3c7d37c5f6c724ade371]
link virt_net_db to host_net--><path d="M266.5792,264.4185 C266.6402,264.2152 266.7018,264.0123 266.7639,263.8096 C267.261,262.1883 267.7948,260.5856 268.3675,259.0064 C269.5129,255.848 270.8141,252.7834 272.2891,249.8513 C278.1893,238.1229 286.8718,228.5145 299.5,223.5 C314.784,217.431 321.216,217.431 336.5,223.5 C346.435,227.445 347.535,231.486 354,240 C369.4125,260.297 382.8533,285.4358 392.7012,306.1919 C395.1632,311.3809 397.4007,316.296 399.3883,320.7931 C399.8852,321.9174 400.3665,323.0155 400.8317,324.0853 C401.0643,324.6201 401.293,325.1479 401.5176,325.6683 C401.6298,325.9285 401.7411,326.1869 401.8514,326.4434 " fill="none" id="virt_net_db-host_net" style="stroke:#A80036;stroke-width:1.0;"/><rect fill="#FFFFFF" height="10" style="stroke:#A80036;stroke-width:1.5;" width="10" x="396.8514" y="321.4434"/><rect fill="#FFFFFF" height="10" style="stroke:#A80036;stroke-width:1.5;" width="10" x="261.5792" y="259.4185"/><!--MD5=[7710e6ac2ba81e55f57824a18e0dc0c4]
link virt_net_stub to host_net--><path d="M62.7227,255.4948 C62.8808,255.1095 63.0415,254.7259 63.2047,254.344 C63.8575,252.8165 64.5516,251.3174 65.2891,249.8513 C71.1892,238.1229 79.8717,228.5145 92.5,223.5 C142.894,203.489 286.106,203.489 336.5,223.5 C364.7065,234.7005 382.7215,263.1603 393.8528,289.8853 C396.6356,296.5665 398.9881,303.1393 400.9622,309.307 C401.2089,310.0779 401.4498,310.8425 401.6848,311.6002 C401.7435,311.7897 401.8019,311.9787 401.86,312.1672 " fill="none" id="virt_net_stub-host_net" style="stroke:#A80036;stroke-width:1.0;"/><rect fill="#FFFFFF" height="10" style="stroke:#A80036;stroke-width:1.5;" width="10" x="396.86" y="307.1672"/><rect fill="#FFFFFF" height="10" style="stroke:#A80036;stroke-width:1.5;" width="10" x="57.7227" y="250.4948"/><!--MD5=[c9d915504b0d814217698c1763361597]
link User to browser--><path d="M716.23,346.5 C692.231,346.5 668.233,346.5 644.234,346.5 " fill="none" id="User-browser" style="stroke:#A80036;stroke-width:1.0;"/><!--MD5=[e86a885e0f2a39450b29cc215b2eb69a]
@startuml
actor User

node host {
    rectangle "host\nnetwork" as host_net #line.dotted {
        [curl]
        [browser] 
    }

    rectangle "virtual\nnetwork" as virt_net_backend #line.dotted {
        [backend]
    }
  
    rectangle "virtual\nnetwork" as virt_net_db #line.dotted {
        database "db"
    }

    rectangle "virtual\nnetwork" as virt_net_stub #line.dotted {
        component "external\nservice" as stub
    }

    virt_net_backend #- -# host_net : "port mapping"
    virt_net_db #-# host_net
    virt_net_stub #-# host_net
}

User - browser
@enduml

PlantUML version 1.2022.2beta1(Unknown compile time)
(GPL source distribution)
Java Runtime: Java(TM) SE Runtime Environment
JVM: Java HotSpot(TM) 64-Bit Server VM
Default Encoding: UTF-8
Language: en
Country: US
--></g></svg>