<?xml version="1.0" encoding="UTF-8" standalone="no"?><svg xmlns="http://www.w3.org/2000/svg" xmlns:xlink="http://www.w3.org/1999/xlink" contentScriptType="application/ecmascript" contentStyleType="text/css" height="610px" preserveAspectRatio="none" style="width:444px;height:610px;background:#FFFFFF;" version="1.1" viewBox="0 0 444 610" width="444px" zoomAndPan="magnify"><defs><filter height="300%" id="f12uqt0j6wqrpn" width="300%" x="-1" y="-1"><feGaussianBlur result="blurOut" stdDeviation="2.0"/><feColorMatrix in="blurOut" result="blurOut2" type="matrix" values="0 0 0 0 0 0 0 0 0 0 0 0 0 0 0 0 0 0 .4 0"/><feOffset dx="4.0" dy="4.0" in="blurOut2" result="blurOut3"/><feBlend in="SourceGraphic" in2="blurOut3" mode="normal"/></filter></defs><g><!--MD5=[c8375d0abf05781a4d00ac7db9cff037]
cluster host--><polygon fill="#FFFFFF" filter="url(#f12uqt0j6wqrpn)" points="16,16,26,6,390,6,390,593.22,380,603.22,16,603.22,16,16" style="stroke:#000000;stroke-width:1.5;"/><line style="stroke:#000000;stroke-width:1.5;" x1="380" x2="390" y1="16" y2="6"/><line style="stroke:#000000;stroke-width:1.5;" x1="16" x2="380" y1="16" y2="16"/><line style="stroke:#000000;stroke-width:1.5;" x1="380" x2="380" y1="16" y2="603.22"/><text fill="#000000" font-family="sans-serif" font-size="14" font-weight="bold" lengthAdjust="spacing" textLength="37" x="180.5" y="31.9951">host</text><!--MD5=[5f87dc508e05c99e0650970eb25205a2]
cluster host_net--><rect fill="#FFFFFF" filter="url(#f12uqt0j6wqrpn)" height="208.22" style="stroke:#000000;stroke-width:1.0;stroke-dasharray:1.0,3.0;" width="247" x="92" y="62"/><text fill="#000000" font-family="sans-serif" font-size="14" font-weight="bold" lengthAdjust="spacing" textLength="37" x="197" y="76.9951">host</text><text fill="#000000" font-family="sans-serif" font-size="14" font-weight="bold" lengthAdjust="spacing" textLength="66" x="182.5" y="93.292">network</text><!--MD5=[81891441d6e886fb43497afdf47a89db]
cluster virt_net--><rect fill="#FFFFFF" filter="url(#f12uqt0j6wqrpn)" height="237" style="stroke:#000000;stroke-width:1.0;stroke-dasharray:1.0,3.0;" width="326" x="40" y="342.22"/><text fill="#000000" font-family="sans-serif" font-size="14" font-weight="bold" lengthAdjust="spacing" textLength="54" x="176" y="357.2151">virtual</text><text fill="#000000" font-family="sans-serif" font-size="14" font-weight="bold" lengthAdjust="spacing" textLength="66" x="170" y="373.512">network</text><!--MD5=[1c4445a7000564b839da5ed8916fbcae]
entity curl--><rect fill="#FEFECE" filter="url(#f12uqt0j6wqrpn)" height="46.2969" style="stroke:#A80036;stroke-width:1.5;" width="66" x="116" y="121"/><rect fill="#FEFECE" height="10" style="stroke:#A80036;stroke-width:1.5;" width="15" x="162" y="126"/><rect fill="#FEFECE" height="2" style="stroke:#A80036;stroke-width:1.5;" width="4" x="160" y="128"/><rect fill="#FEFECE" height="2" style="stroke:#A80036;stroke-width:1.5;" width="4" x="160" y="132"/><text fill="#000000" font-family="sans-serif" font-size="14" lengthAdjust="spacing" textLength="26" x="131" y="153.9951">curl</text><!--MD5=[23555a4f9c8a267cdfd801ad53ceaf15]
entity browser--><rect fill="#FEFECE" filter="url(#f12uqt0j6wqrpn)" height="46.2969" style="stroke:#A80036;stroke-width:1.5;" width="98" x="217" y="121"/><rect fill="#FEFECE" height="10" style="stroke:#A80036;stroke-width:1.5;" width="15" x="295" y="126"/><rect fill="#FEFECE" height="2" style="stroke:#A80036;stroke-width:1.5;" width="4" x="293" y="128"/><rect fill="#FEFECE" height="2" style="stroke:#A80036;stroke-width:1.5;" width="4" x="293" y="132"/><text fill="#000000" font-family="sans-serif" font-size="14" lengthAdjust="spacing" textLength="58" x="232" y="153.9951">browser</text><!--MD5=[e937783d151d78c9e87fd4c0d99f7485]
entity proxy--><rect fill="#FEFECE" filter="url(#f12uqt0j6wqrpn)" height="46.2969" style="stroke:#A80036;stroke-width:1.5;" width="81" x="56.5" y="393.22"/><rect fill="#FEFECE" height="10" style="stroke:#A80036;stroke-width:1.5;" width="15" x="117.5" y="398.22"/><rect fill="#FEFECE" height="2" style="stroke:#A80036;stroke-width:1.5;" width="4" x="115.5" y="400.22"/><rect fill="#FEFECE" height="2" style="stroke:#A80036;stroke-width:1.5;" width="4" x="115.5" y="404.22"/><text fill="#000000" font-family="sans-serif" font-size="14" lengthAdjust="spacing" textLength="41" x="71.5" y="426.2151">proxy</text><!--MD5=[4e8ecd94af36cce41665c9f079adf9fd]
entity backend--><rect fill="#FEFECE" filter="url(#f12uqt0j6wqrpn)" height="46.2969" style="stroke:#A80036;stroke-width:1.5;" width="102" x="173" y="393.22"/><rect fill="#FEFECE" height="10" style="stroke:#A80036;stroke-width:1.5;" width="15" x="255" y="398.22"/><rect fill="#FEFECE" height="2" style="stroke:#A80036;stroke-width:1.5;" width="4" x="253" y="400.22"/><rect fill="#FEFECE" height="2" style="stroke:#A80036;stroke-width:1.5;" width="4" x="253" y="404.22"/><text fill="#000000" font-family="sans-serif" font-size="14" lengthAdjust="spacing" textLength="62" x="188" y="426.2151">backend</text><!--MD5=[e4679e91b5107b1d6f14b392c0de4394]
entity stub--><rect fill="#FEFECE" filter="url(#f12uqt0j6wqrpn)" height="62.5938" style="stroke:#A80036;stroke-width:1.5;" width="100" x="174" y="500.22"/><rect fill="#FEFECE" height="10" style="stroke:#A80036;stroke-width:1.5;" width="15" x="254" y="505.22"/><rect fill="#FEFECE" height="2" style="stroke:#A80036;stroke-width:1.5;" width="4" x="252" y="507.22"/><rect fill="#FEFECE" height="2" style="stroke:#A80036;stroke-width:1.5;" width="4" x="252" y="511.22"/><text fill="#000000" font-family="sans-serif" font-size="14" lengthAdjust="spacing" textLength="60" x="189" y="533.2151">external</text><text fill="#000000" font-family="sans-serif" font-size="14" lengthAdjust="spacing" textLength="51" x="189" y="549.512">service</text><!--MD5=[7468467f3b6b392f1d176d828c753b77]
entity db--><path d="M310.5,403.72 C310.5,393.72 330,393.72 330,393.72 C330,393.72 349.5,393.72 349.5,403.72 L349.5,429.0169 C349.5,439.0169 330,439.0169 330,439.0169 C330,439.0169 310.5,439.0169 310.5,429.0169 L310.5,403.72 " fill="#FEFECE" filter="url(#f12uqt0j6wqrpn)" style="stroke:#000000;stroke-width:1.5;"/><path d="M310.5,403.72 C310.5,413.72 330,413.72 330,413.72 C330,413.72 349.5,413.72 349.5,403.72 " fill="none" style="stroke:#000000;stroke-width:1.5;"/><text fill="#000000" font-family="sans-serif" font-size="14" lengthAdjust="spacing" textLength="19" x="320.5" y="430.7151">db</text><!--MD5=[fee662a292a0353a69bd162820bae93b]
entity User--><ellipse cx="422" cy="113" fill="#FEFECE" filter="url(#f12uqt0j6wqrpn)" rx="8" ry="8" style="stroke:#A80036;stroke-width:1.5;"/><path d="M422,121 L422,148 M409,129 L435,129 M422,148 L409,163 M422,148 L435,163 " fill="none" filter="url(#f12uqt0j6wqrpn)" style="stroke:#A80036;stroke-width:1.5;"/><text fill="#000000" font-family="sans-serif" font-size="14" lengthAdjust="spacing" textLength="31" x="406.5" y="181.4951">User</text><!--MD5=[ef0c5fe5e52b773d9c56f9d04c6e5c02]
link proxy to backend--><path d="M137.68,416.22 C147.634,416.22 157.588,416.22 167.542,416.22 " fill="none" id="proxy-to-backend" style="stroke:#A80036;stroke-width:1.0;"/><rect fill="#FFFFFF" height="10" style="stroke:#A80036;stroke-width:1.5;" width="10" x="167.747" y="411.22"/><!--MD5=[11aba444aaed1477ca29eccfc8a96c84]
link backend to stub--><path d="M224,439.373 C224,455.177 224,476.769 224,494.993 " fill="none" id="backend-to-stub" style="stroke:#A80036;stroke-width:1.0;"/><rect fill="#FFFFFF" height="10" style="stroke:#A80036;stroke-width:1.5;" width="10" x="219" y="495.036"/><!--MD5=[164906b3333609339db5c9ea3f301200]
link backend to db--><path d="M275.344,416.22 C285.283,416.22 295.222,416.22 305.16,416.22 " fill="none" id="backend-to-db" style="stroke:#A80036;stroke-width:1.0;"/><rect fill="#FFFFFF" height="10" style="stroke:#A80036;stroke-width:1.5;" width="10" x="305.358" y="411.22"/><!--MD5=[d0de0f7d51e20fc88ee66201f52ce949]
link host_net to proxy--><path d="M124.599,270.2203 C124.5616,270.4165 124.5236,270.6161 124.4849,270.8192 C124.4076,271.2255 124.3277,271.6454 124.2452,272.0787 C123.9153,273.8118 123.5449,275.7582 123.139,277.8904 C121.5156,286.4196 119.3259,297.9243 116.901,310.6643 C112.0513,336.1443 106.261,366.5655 102.18,388.006 " fill="none" id="host_net-proxy" style="stroke:#A80036;stroke-width:1.0;"/><rect fill="#FFFFFF" height="10" style="stroke:#A80036;stroke-width:1.5;" width="10" x="96.22" y="388.05"/><rect fill="#FFFFFF" height="10" style="stroke:#A80036;stroke-width:1.5;" width="10" x="119.599" y="265.2203"/><text fill="#000000" font-family="sans-serif" font-size="13" lengthAdjust="spacing" textLength="26" x="135" y="307.2869">port</text><text fill="#000000" font-family="sans-serif" font-size="13" lengthAdjust="spacing" textLength="56" x="120" y="322.4197">mapping</text><!--MD5=[95edf31b92fb2d6a87add5e9d625c1ee]
link browser to host_net--><path d="M239.338,167.187 C199.353,200.46 128.265,259.616 126.053,261.456 " fill="none" id="browser-host_net" style="stroke:#A80036;stroke-width:1.0;"/><text fill="#000000" font-family="sans-serif" font-size="13" lengthAdjust="spacing" textLength="57" x="180" y="227.5669">localhost</text><!--MD5=[c9d915504b0d814217698c1763361597]
link User to browser--><path d="M406.125,144 C375.768,144 345.412,144 315.055,144 " fill="none" id="User-browser" style="stroke:#A80036;stroke-width:1.0;"/><!--MD5=[0382253fe59b2387ca6a5abb49c11d9c]
@startuml
actor User

node host {
    rectangle "host\nnetwork" as host_net #line.dotted {
        [curl]
        [browser]
    }

    rectangle "virtual\nnetwork" as virt_net #line.dotted {
        component "proxy"    
        component "backend"
        component "external\nservice" as stub
        database "db"
    }
  
  
    proxy -# backend
    backend - -# stub
    backend -# db
    host_net #- -# proxy : "port\nmapping"
    browser - - host_net : "localhost"
}

User - browser
@enduml

PlantUML version 1.2022.2beta1(Unknown compile time)
(GPL source distribution)
Java Runtime: Java(TM) SE Runtime Environment
JVM: Java HotSpot(TM) 64-Bit Server VM
Default Encoding: UTF-8
Language: en
Country: US
--></g></svg>